<?xml version="1.0" encoding="UTF-8" standalone="no"?><!-- Generator: Gravit.io --><svg xmlns="http://www.w3.org/2000/svg" xmlns:xlink="http://www.w3.org/1999/xlink" style="isolation:isolate" viewBox="0 0 145.307 155.827" width="145.307pt" height="155.827pt"><defs><clipPath id="_clipPath_FtBx3bcJgbPlzFfuuRBBeZa34usN6b1F"><rect width="145.307" height="155.827"/></clipPath></defs><g clip-path="url(#_clipPath_FtBx3bcJgbPlzFfuuRBBeZa34usN6b1F)"><g><path d=" M 67.339 131.638 C 67.339 135.543 69.686 138.751 72.565 138.751 C 75.444 138.751 77.792 135.543 77.792 131.638 L 77.792 125.463 L 67.339 125.463 L 67.339 131.638 Z " fill="rgb(108,196,238)"/><path d=" M 39.318 151.625 L 105.988 151.625 L 105.988 146.78 L 39.318 146.78 L 39.318 151.625 Z  M 107.982 155.613 L 37.324 155.613 C 36.223 155.613 35.33 154.72 35.33 153.619 L 35.33 144.786 C 35.33 143.684 36.223 142.792 37.324 142.792 L 107.982 142.792 C 109.084 142.792 109.976 143.684 109.976 144.786 L 109.976 153.619 C 109.976 154.72 109.084 155.613 107.982 155.613 Z " fill="rgb(57,66,95)"/><path d=" M 72.565 140.156 C 68.593 140.156 65.36 136.08 65.36 131.07 L 65.36 124.914 C 65.36 122.279 69.349 122.275 69.349 124.914 L 69.349 131.07 C 69.349 133.786 70.851 136.168 72.565 136.168 C 74.279 136.168 75.782 133.786 75.782 131.07 L 75.782 124.914 C 75.782 122.279 79.77 122.275 79.77 124.914 L 79.77 131.07 C 79.77 136.08 76.538 140.156 72.565 140.156 Z " fill="rgb(57,66,95)"/><path d=" M 49.464 146.178 C 46.387 144.12 52.244 141.901 52.244 132.399 L 52.244 124.914 C 52.244 122.279 56.232 122.275 56.232 124.914 C 56.232 132.753 56.927 138.607 52.23 145.629 C 51.615 146.55 50.373 146.789 49.464 146.178 Z " fill="rgb(57,66,95)"/><path d=" M 92.9 145.629 C 88.265 138.699 88.898 132.991 88.898 124.914 C 88.898 122.279 92.887 122.275 92.887 124.914 C 92.887 132.416 92.226 137.447 96.215 143.413 C 97.681 145.603 94.364 147.823 92.9 145.629 Z " fill="rgb(57,66,95)"/><path d=" M 140.474 126.208 L 4.518 126.208 C 2.027 126.208 0 124.264 0 121.877 L 0 29.394 C 0 27.006 2.027 25.063 4.518 25.063 L 18.594 25.063 C 21.228 25.063 21.234 29.051 18.594 29.051 L 4.518 29.051 C 3.696 29.051 3.989 23.046 3.989 121.877 C 3.989 122.409 139.941 122.219 140.474 122.219 C 141.715 122.219 141.318 128.984 141.318 29.394 C 141.318 29.254 141.112 29.051 140.789 29.051 L 126.928 29.051 C 124.293 29.051 124.289 25.063 126.928 25.063 L 140.789 25.063 C 143.28 25.063 145.307 27.006 145.307 29.394 L 145.307 121.585 C 145.307 124.133 143.139 126.208 140.474 126.208 Z " fill="rgb(57,66,95)"/><path d=" M 134.479 112.917 L 10.827 112.917 C 9.749 112.917 8.875 112.043 8.875 110.964 L 8.875 37.039 C 8.875 35.961 9.749 35.087 10.827 35.087 L 18.861 35.087 C 21.439 35.087 21.444 38.991 18.861 38.991 L 12.779 38.991 L 12.779 109.012 L 132.527 109.012 L 132.527 38.324 L 126.928 38.324 C 124.349 38.324 124.346 34.42 126.928 34.42 L 134.479 34.42 C 135.557 34.42 136.432 35.294 136.432 36.372 L 136.432 110.964 C 136.432 112.043 135.557 112.917 134.479 112.917 Z " fill="rgb(57,66,95)"/><path d=" M 137.764 155.827 C 134.846 155.827 134.843 151.41 137.764 151.41 C 140.682 151.41 140.684 155.827 137.764 155.827 Z " fill="rgb(57,66,95)"/><path d=" M 134.479 119.797 C 131.562 119.797 131.558 115.38 134.479 115.38 C 137.397 115.38 137.4 119.797 134.479 119.797 Z " fill="rgb(57,66,95)"/><path d=" M 125.647 119.797 C 122.729 119.797 122.726 115.38 125.647 115.38 C 128.565 115.38 128.568 119.797 125.647 119.797 Z " fill="rgb(57,66,95)"/><path d=" M 116.815 119.797 C 113.897 119.797 113.894 115.38 116.815 115.38 C 119.733 115.38 119.736 119.797 116.815 119.797 Z " fill="rgb(57,66,95)"/><path d=" M 129.739 155.613 L 10.827 155.613 C 8.193 155.613 8.187 151.625 10.827 151.625 L 129.739 151.625 C 130.841 151.625 131.733 152.517 131.733 153.619 C 131.733 154.72 130.841 155.613 129.739 155.613 Z " fill="rgb(57,66,95)"/><path d=" M 122.595 109.739 L 122.595 19.539 L 22.928 19.539 L 22.928 109.223 C 22.928 111.866 18.928 111.87 18.928 109.223 L 18.928 17.539 C 18.928 16.434 19.823 15.539 20.928 15.539 L 124.595 15.539 C 125.699 15.539 126.595 16.434 126.595 17.539 L 126.595 109.739 C 126.595 112.381 122.595 112.385 122.595 109.739 Z " fill="rgb(57,66,95)"/><path d=" M 125.095 8.454 C 125.095 5.004 122.271 2.209 118.788 2.209 L 27.128 2.209 C 23.645 2.209 20.822 5.004 20.822 8.454 L 20.822 17.454 L 125.095 17.454 L 125.095 8.454 Z " fill="rgb(108,196,238)"/><path d=" M 23.009 15.2 L 122.907 15.2 L 122.907 8.529 C 122.907 6.025 120.87 3.988 118.366 3.988 L 27.55 3.988 C 25.046 3.988 23.009 6.025 23.009 8.529 L 23.009 15.2 Z  M 124.901 19.188 L 21.015 19.188 C 19.914 19.188 19.021 18.296 19.021 17.194 L 19.021 8.529 C 19.021 3.826 22.847 0 27.55 0 L 118.366 0 C 123.069 0 126.895 3.826 126.895 8.529 L 126.895 17.194 C 126.895 18.296 126.003 19.188 124.901 19.188 Z " fill="rgb(57,66,95)"/><path d=" M 30.368 9.832 C 30.368 12.656 34.684 12.656 34.684 9.832 C 34.684 7.006 30.368 7.006 30.368 9.832 Z " fill="rgb(57,66,95)"/><path d=" M 38.041 9.832 C 38.041 12.656 42.358 12.656 42.358 9.832 C 42.358 7.006 38.041 7.006 38.041 9.832 Z " fill="rgb(57,66,95)"/><path d=" M 45.716 9.832 C 45.716 12.656 50.032 12.656 50.032 9.832 C 50.032 7.006 45.716 7.006 45.716 9.832 Z " fill="rgb(57,66,95)"/></g><g><path d=" M 45.761 61.236 L 40.039 61.216 L 40.069 52.793 L 30.943 52.761 L 30.913 61.184 L 25.172 61.164 L 25.247 39.549 L 30.989 39.569 L 30.958 48.437 L 40.084 48.469 L 40.115 39.6 L 45.837 39.62 L 45.761 61.236 Z  M 69.004 44.043 L 61.521 44.017 L 61.461 61.291 L 55.72 61.271 L 55.78 43.997 L 48.435 43.971 L 48.45 39.63 L 69.019 39.701 L 69.004 44.043 Z  M 79.195 39.737 L 84.906 54.323 L 90.678 39.777 L 98.259 39.803 L 98.184 61.419 L 92.423 61.399 C 92.443 55.876 92.312 59.286 93.073 45.667 L 86.781 61.379 L 82.96 61.366 L 76.799 45.667 C 77.464 59.219 77.357 55.828 77.337 61.346 L 71.577 61.326 L 71.652 39.711 L 79.195 39.737 Z  M 107.881 57.149 L 120.762 57.194 L 120.747 61.498 L 102.124 61.433 L 102.2 39.817 L 107.941 39.837 L 107.881 57.149 Z  M 49.304 87.808 L 60.575 91.576 L 60.557 96.771 L 43.535 89.94 L 43.55 85.562 L 60.62 78.847 L 60.601 84.042 L 49.304 87.808 Z  M 74.129 101.68 L 69.872 101.665 L 73.511 72.343 L 77.767 72.358 L 74.129 101.68 Z  M 92.126 87.9 L 80.636 84.095 L 80.654 78.937 L 97.875 85.768 L 97.86 90.129 L 80.592 96.86 L 80.61 91.683 L 92.126 87.9 Z " fill-rule="evenodd" fill="rgb(240,107,108)"/></g></g></svg>