<?xml version="1.0" encoding="UTF-8" standalone="no"?><!-- Generator: Gravit.io --><svg xmlns="http://www.w3.org/2000/svg" xmlns:xlink="http://www.w3.org/1999/xlink" style="isolation:isolate" viewBox="0 0 500 500" width="500pt" height="500pt"><defs><clipPath id="_clipPath_YzAZq4iTdn0ACMGvneQP3iDhGPGWFUhJ"><rect width="500" height="500"/></clipPath></defs><g clip-path="url(#_clipPath_YzAZq4iTdn0ACMGvneQP3iDhGPGWFUhJ)"><g><clipPath id="_clipPath_VeHh1bhjc6k1nozni5sJwnGZSjYbObNx"><path d=" M 0 0 L 0 500 L 500 500 L 500 0 L 0 0 Z " fill="rgb(255,255,255)"/></clipPath><g clip-path="url(#_clipPath_VeHh1bhjc6k1nozni5sJwnGZSjYbObNx)"><path d=" M 1044 505 L 544 505 L 544 5 L 1044 5 L 1044 505 Z " fill="rgb(254,254,254)"/><path d=" M 250 456.408 C 211.018 456.408 179.415 455.208 179.415 453.73 C 179.415 452.25 211.018 451.053 250 451.053 C 288.983 451.053 320.585 452.25 320.585 453.73 C 320.585 455.208 288.983 456.408 250 456.408 Z " fill="rgb(216,217,216)"/><path d=" M 289.885 170.506 C 288.56 174.361 289.658 178.212 292.295 179.114 C 294.948 180.028 298.17 177.634 299.493 173.806 C 300.808 169.943 299.735 166.088 297.09 165.191 C 294.423 164.277 291.213 166.652 289.885 170.506 Z " fill="rgb(248,172,131)"/><path d=" M 205.498 152.809 C 204.734 156.511 206.181 159.951 208.73 160.455 C 211.289 160.991 213.974 158.401 214.727 154.701 C 215.491 150.999 214.031 147.572 211.487 147.049 C 208.935 146.523 206.242 149.096 205.498 152.809 Z " fill="rgb(248,172,131)"/><radialGradient id="_rgradient_4" fx="0.5404622391629808" fy="0.24095292882509822" cx="0.5" cy="0.5" r="0.5" gradientTransform="matrix(283.665,-286.95,76.335,122.95,27.167,429.475)" gradientUnits="userSpaceOnUse"><stop offset="0%" stop-opacity="1" style="stop-color:rgb(71,81,119)"/><stop offset="100%" stop-opacity="1" style="stop-color:rgb(41,41,41)"/></radialGradient><path d=" M 204.267 295.14 C 204.267 295.14 180.378 332.938 185.152 365.523 C 189.942 398.09 212.692 403.08 212.692 403.08 L 215.13 396.365 C 215.13 396.365 196.447 380.293 203.831 355.528 C 211.216 330.768 227.147 310.203 227.147 310.203 C 227.147 310.203 233.6 300.14 226.429 294.268 C 219.267 288.405 204.267 295.14 204.267 295.14 Z " fill="url(#_rgradient_4)"/><radialGradient id="_rgradient_5" fx="0.4536239736128276" fy="0.1699659108753515" cx="0.5" cy="0.5" r="0.5" gradientTransform="matrix(109.404,69.384,25.929,203.283,170.298,238.308)" gradientUnits="userSpaceOnUse"><stop offset="0%" stop-opacity="1" style="stop-color:rgb(71,81,119)"/><stop offset="100%" stop-opacity="1" style="stop-color:rgb(41,41,41)"/></radialGradient><path d=" M 252.15 311.645 C 252.15 311.645 238.155 393.75 242.498 449.36 L 236.186 448.32 C 236.186 448.32 215.668 355.528 227.404 299.923 C 227.404 299.923 246.074 304.268 252.15 311.645 Z " fill="url(#_rgradient_5)"/><path d=" M 257.813 318.465 C 257.813 318.465 254.515 318.635 251.31 316.483 L 251.915 312.97 C 251.915 312.97 255.778 315.453 257.813 318.465 Z " fill="rgb(63,52,132)"/><radialGradient id="_rgradient_6" fx="0.23827815827520338" fy="0.44019684566620687" cx="0.5" cy="0.5" r="0.5" gradientTransform="matrix(251.066,234.743,137.601,-198.743,55.467,219.962)" gradientUnits="userSpaceOnUse"><stop offset="0%" stop-opacity="1" style="stop-color:rgb(45,74,138)"/><stop offset="100%" stop-opacity="1" style="stop-color:rgb(0,0,0)"/></radialGradient><path d=" M 248.737 222.837 C 248.737 222.837 259.522 220.522 270.233 207.201 C 280.95 193.877 288.24 177.625 288.633 177.505 C 293.975 175.895 297.18 179.386 297.18 179.386 C 297.18 179.386 288.923 203.513 263.94 238.047 C 262.425 243.039 257.693 275.595 257.848 318.465 C 257.848 318.465 255.283 315.123 249.455 311.358 C 243.788 307.703 218.301 297.093 202.421 297.098 C 202.421 297.098 215.498 246.953 217.028 235.436 C 216.805 228.701 201.601 205.676 205.285 157.459 L 212.677 160.493 C 212.677 160.493 212.241 194.381 226.805 214.15 C 231.361 220.018 235.498 221.313 235.498 221.313 L 248.737 222.837 Z " fill="url(#_rgradient_6)"/><path d=" M 248.13 222.056 L 236.822 220.949 L 237.121 211.453 L 248.454 212.591 L 248.13 222.056 Z " fill="rgb(248,172,131)"/><path d=" M 233.223 220.069 C 233.223 220.069 248.95 221.765 251.143 221.979 C 253.325 222.197 250.53 228.68 241.818 227.534 C 234.741 226.607 232.151 223.552 233.223 220.069 Z " fill="rgb(248,172,131)"/><path d=" M 261.163 197.142 C 260.957 199.308 259.395 200.911 257.675 200.752 C 255.958 200.582 254.745 198.685 254.955 196.522 C 255.173 194.368 256.728 192.744 258.455 192.924 C 260.16 193.087 261.378 194.975 261.163 197.142 Z " fill="rgb(248,172,131)"/><path d=" M 236.326 194.667 C 236.1 196.822 234.544 198.449 232.822 198.27 C 231.126 198.095 229.895 196.211 230.104 194.048 C 230.331 191.881 231.89 190.274 233.617 190.446 C 235.318 190.616 236.54 192.501 236.326 194.667 Z " fill="rgb(248,172,131)"/><path d=" M 248.355 215.495 L 248.449 212.731 L 248.355 215.495 C 248.355 215.495 248.355 215.495 248.355 215.495 Z  M 248.454 212.591 L 237.121 211.453 L 248.454 212.59 L 248.454 212.591 Z " fill="rgb(252,217,198)"/><path d=" M 244.419 216.207 C 244.016 216.207 243.606 216.186 243.19 216.145 C 240.781 215.903 238.755 214.943 237.057 213.509 L 237.121 211.453 L 248.454 212.591 L 248.449 212.731 L 248.355 215.495 C 247.129 215.961 245.816 216.207 244.419 216.207 Z " fill="rgb(245,149,107)"/><path d=" M 258.223 199.257 C 255.89 208.586 250.62 214.514 243.19 213.774 C 235.771 213.03 231.63 206.014 231.326 196.569 C 231.044 187.758 235.386 180.955 246.351 182.057 C 257.308 183.134 260.36 190.706 258.223 199.257 Z " fill="rgb(248,172,131)"/><radialGradient id="_rgradient_7" fx="0.3298575313078449" fy="0.03933954261799766" cx="0.5" cy="0.5" r="0.5" gradientTransform="matrix(94.818,-2.713,7.557,32.338,195.966,168.044)" gradientUnits="userSpaceOnUse"><stop offset="0%" stop-opacity="1" style="stop-color:rgb(238,238,168)"/><stop offset="62.09850301366736%" stop-opacity="1" style="stop-color:rgb(172,158,68)"/></radialGradient><path d=" M 239.759 185.169 C 241.769 187.014 246.848 190.921 256.54 194.095 C 256.582 194.12 256.625 194.145 256.668 194.17 C 260.668 196.487 265.97 194.264 267.02 189.763 C 267.51 187.663 267.348 184.952 265.668 181.592 C 260.91 172.11 243.788 166.459 236.206 174.356 C 236.206 174.356 223.099 177.187 228.241 193.577 C 228.451 194.249 229.266 194.55 229.854 194.164 C 232.454 192.457 237.709 190.536 238.565 185.582 C 238.662 185.017 239.337 184.781 239.759 185.169 Z " fill="url(#_rgradient_7)"/><path d=" M 232.42 192.223 C 232.42 192.223 231.566 196.779 231.925 201.569 C 231.925 201.569 230.604 195.727 230.929 192.39 C 231.267 189.039 232.42 192.223 232.42 192.223 Z " fill="rgb(171,158,67)"/><path d=" M 257.8 194.762 C 257.8 194.762 257.753 199.39 256.455 204.014 C 256.455 204.014 258.908 198.552 259.235 195.206 C 259.56 191.873 257.8 194.762 257.8 194.762 Z " fill="rgb(171,158,67)"/><path d=" M 211.771 402.825 C 211.771 402.825 212.275 410.063 215.549 414.985 C 216.092 415.733 216.9 415.135 216.917 413.72 C 216.917 412.33 218.878 398.058 217.686 397.233 C 216.506 396.4 215.326 396.378 215.326 396.378 C 215.326 396.378 211.651 401.87 211.771 402.825 Z " fill="rgb(41,41,41)"/><path d=" M 235.301 446.125 C 235.301 446.125 227.155 447.778 222.023 452.215 C 221.258 452.938 222.044 453.783 223.634 453.583 C 225.245 453.385 241.758 453.528 242.531 452.048 C 243.309 450.585 242.591 447.823 242.591 447.823 C 242.591 447.823 236.373 445.86 235.301 446.125 Z " fill="rgb(41,41,41)"/><path d=" M 315.028 179.335 L 191.228 149.371 C 188.702 148.758 187.15 146.213 187.762 143.687 L 210.48 49.988 C 211.093 47.461 213.637 45.909 216.164 46.522 L 339.965 76.486 C 342.49 77.099 344.043 79.644 343.43 82.171 L 320.713 175.87 C 320.1 178.396 317.555 179.948 315.028 179.335 Z " fill="rgb(67,87,100)"/><path d=" M 341.455 90.316 L 208.505 58.133 L 210.48 49.988 C 211.093 47.461 213.637 45.909 216.164 46.522 L 339.965 76.486 C 342.49 77.099 344.043 79.644 343.43 82.171 L 341.455 90.316 Z " fill="rgb(169,168,168)"/><path d=" M 220.68 58.095 L 216.188 57.007 C 215.573 56.857 215.194 56.237 215.344 55.621 L 216.434 51.125 C 216.583 50.51 217.203 50.132 217.819 50.281 L 222.31 51.37 C 222.926 51.519 223.304 52.139 223.155 52.755 L 222.065 57.251 C 221.916 57.866 221.295 58.245 220.68 58.095 Z " fill="rgb(254,254,254)"/><path d=" M 302.5 77.732 L 242.854 63.321 C 241.889 63.087 241.297 62.116 241.531 61.151 L 242.245 58.203 C 242.479 57.238 243.451 56.646 244.416 56.88 L 304.063 71.29 C 305.028 71.524 305.62 72.496 305.385 73.461 L 304.67 76.409 C 304.438 77.373 303.465 77.966 302.5 77.732 Z " fill="rgb(254,254,254)"/><path d=" M 219.635 56.112 L 217.886 53.826 L 220.489 52.588 L 219.635 56.112 Z " fill="rgb(41,41,41)"/><path d=" M 225.803 59.337 L 230.306 60.429 C 230.921 60.579 231.542 60.2 231.691 59.584 L 232.781 55.089 C 232.93 54.473 232.552 53.853 231.936 53.704 L 227.434 52.612 C 226.818 52.462 226.197 52.841 226.048 53.457 L 224.958 57.952 C 224.809 58.568 225.187 59.188 225.803 59.337 Z " fill="rgb(254,254,254)"/><path d=" M 227.651 58.055 L 230.252 56.825 L 228.506 54.532 L 227.651 58.055 Z " fill="rgb(41,41,41)"/><path d=" M 320.095 78.482 C 319.768 79.835 318.408 80.666 317.053 80.338 C 315.695 80.009 314.865 78.647 315.193 77.294 C 315.523 75.939 316.883 75.109 318.24 75.438 C 319.595 75.766 320.423 77.127 320.095 78.482 Z " fill="rgb(193,192,194)"/><path d=" M 328.803 80.593 C 328.475 81.947 327.11 82.776 325.758 82.448 C 324.403 82.12 323.578 80.76 323.905 79.406 C 324.235 78.052 325.593 77.22 326.945 77.548 C 328.298 77.876 329.13 79.238 328.803 80.593 Z " fill="rgb(193,192,194)"/><path d=" M 337.185 82.625 C 336.855 83.979 335.503 84.811 334.15 84.483 C 332.793 84.154 331.96 82.792 332.288 81.438 C 332.618 80.084 333.98 79.254 335.338 79.583 C 336.69 79.911 337.513 81.271 337.185 82.625 Z " fill="rgb(232,118,118)"/><path d=" M 207.043 146.713 L 205.231 146.274 L 224.146 68.257 L 225.959 68.696 L 207.043 146.713 Z " fill="rgb(226,226,228)"/><path d=" M 218.56 72.649 L 215.545 71.918 L 216.276 68.904 L 219.291 69.635 L 218.56 72.649 Z " fill="rgb(226,226,228)"/><path d=" M 216.959 79.252 L 213.944 78.521 L 214.674 75.51 L 217.689 76.241 L 216.959 79.252 Z " fill="rgb(226,226,228)"/><path d=" M 215.356 85.863 L 212.341 85.132 L 213.074 82.112 L 216.089 82.843 L 215.356 85.863 Z " fill="rgb(226,226,228)"/><path d=" M 213.754 92.47 L 210.739 91.739 L 211.472 88.719 L 214.487 89.45 L 213.754 92.47 Z " fill="rgb(226,226,228)"/><path d=" M 212.155 99.067 L 209.14 98.336 L 209.869 95.328 L 212.884 96.059 L 212.155 99.067 Z " fill="rgb(226,226,228)"/><path d=" M 210.552 105.678 L 207.537 104.947 L 208.269 101.93 L 211.284 102.661 L 210.552 105.678 Z " fill="rgb(226,226,228)"/><path d=" M 208.951 112.283 L 205.936 111.552 L 206.667 108.537 L 209.682 109.268 L 208.951 112.283 Z " fill="rgb(226,226,228)"/><path d=" M 207.35 118.885 L 204.335 118.154 L 205.066 115.141 L 208.081 115.872 L 207.35 118.885 Z " fill="rgb(226,226,228)"/><path d=" M 205.747 125.495 L 202.732 124.764 L 203.464 121.748 L 206.479 122.479 L 205.747 125.495 Z " fill="rgb(226,226,228)"/><path d=" M 204.146 132.101 L 201.131 131.37 L 201.863 128.35 L 204.878 129.081 L 204.146 132.101 Z " fill="rgb(226,226,228)"/><path d=" M 202.545 138.703 L 199.53 137.972 L 200.261 134.958 L 203.276 135.69 L 202.545 138.703 Z " fill="rgb(226,226,228)"/><path d=" M 232.903 72.07 L 230.15 73.878 C 229.953 74.005 229.898 74.26 230.008 74.463 L 231.596 77.161 C 231.72 77.366 231.982 77.43 232.186 77.316 C 232.299 77.253 232.366 77.148 232.392 77.04 C 232.418 76.935 232.405 76.817 232.345 76.719 C 232.345 76.719 231.284 74.913 230.971 74.374 C 231.498 74.029 233.382 72.8 233.382 72.8 C 233.477 72.736 233.546 72.639 233.57 72.54 C 233.598 72.424 233.568 72.302 233.505 72.191 C 233.373 71.993 233.109 71.938 232.903 72.07 Z " fill="rgb(254,254,254)"/><path d=" M 243.262 74.557 C 243.151 74.625 243.076 74.722 243.048 74.838 C 243.024 74.937 243.037 75.054 243.089 75.154 C 243.089 75.154 244.201 77.109 244.512 77.657 C 243.987 77.993 242.216 79.113 242.216 79.113 C 242.125 79.174 242.063 79.273 242.037 79.378 C 242.011 79.486 242.019 79.61 242.084 79.716 C 242.217 79.911 242.482 79.976 242.683 79.849 L 245.33 78.178 C 245.521 78.048 245.582 77.795 245.472 77.592 L 243.853 74.725 C 243.737 74.514 243.467 74.44 243.262 74.557 Z " fill="rgb(254,254,254)"/><path d=" M 239.795 73.971 L 234.718 77.135 C 234.515 77.258 234.45 77.526 234.584 77.733 C 234.705 77.933 234.975 77.996 235.179 77.868 L 240.254 74.711 C 240.456 74.581 240.52 74.315 240.392 74.116 C 240.268 73.909 240.003 73.845 239.795 73.971 Z " fill="rgb(254,254,254)"/><path d=" M 215.572 143.552 L 212.82 145.356 C 212.622 145.486 212.567 145.744 212.679 145.94 L 214.265 148.642 C 214.389 148.846 214.65 148.916 214.855 148.798 C 214.968 148.733 215.034 148.635 215.061 148.525 C 215.087 148.417 215.073 148.302 215.014 148.201 C 215.014 148.201 213.953 146.395 213.639 145.86 C 214.167 145.515 216.051 144.282 216.051 144.282 C 216.148 144.213 216.214 144.124 216.239 144.024 C 216.267 143.905 216.239 143.779 216.174 143.676 C 216.041 143.479 215.777 143.421 215.572 143.552 Z " fill="rgb(254,254,254)"/><path d=" M 225.93 146.042 C 225.822 146.102 225.745 146.203 225.717 146.322 C 225.692 146.422 225.707 146.53 225.758 146.635 C 225.758 146.635 226.869 148.594 227.18 149.143 C 226.656 149.474 224.885 150.595 224.885 150.595 C 224.794 150.659 224.732 150.755 224.706 150.863 C 224.679 150.973 224.689 151.09 224.753 151.198 C 224.885 151.398 225.152 151.456 225.352 151.33 L 228 149.654 C 228.19 149.532 228.252 149.275 228.142 149.071 L 226.522 146.206 C 226.406 145.998 226.135 145.927 225.93 146.042 Z " fill="rgb(254,254,254)"/><path d=" M 222.463 145.458 L 217.388 148.615 C 217.184 148.74 217.118 149.011 217.254 149.212 C 217.374 149.417 217.643 149.482 217.847 149.353 L 222.923 146.194 C 223.124 146.067 223.189 145.799 223.062 145.592 C 222.937 145.391 222.671 145.33 222.463 145.458 Z " fill="rgb(254,254,254)"/><path d=" M 238.874 83.722 L 225.142 80.393 L 225.8 77.68 L 239.532 81.009 L 238.874 83.722 Z " fill="rgb(226,154,57)"/><path d=" M 231.824 120.231 L 216.391 116.49 L 217.05 113.773 L 232.482 117.515 L 231.824 120.231 Z " fill="rgb(239,159,54)"/><path d=" M 221.05 143.169 L 210.54 140.621 L 211.2 137.899 L 221.71 140.447 L 221.05 143.169 Z " fill="rgb(239,159,54)"/><path d=" M 249.013 92.569 L 227.075 87.25 L 227.734 84.533 L 249.672 89.852 L 249.013 92.569 Z " fill="rgb(55,186,154)"/><path d=" M 238.383 128.313 L 218.3 123.443 L 218.958 120.726 L 239.042 125.596 L 238.383 128.313 Z " fill="rgb(250,221,134)"/><path d=" M 236.596 134.025 L 216.892 129.248 L 217.55 126.535 L 237.253 131.312 L 236.596 134.025 Z " fill="rgb(141,193,201)"/><path d=" M 225.982 137.841 L 215.429 135.283 L 216.087 132.569 L 226.64 135.127 L 225.982 137.841 Z " fill="rgb(55,186,154)"/><path d=" M 273.44 149.347 L 228.502 138.452 L 229.16 135.739 L 274.1 146.634 L 273.44 149.347 Z " fill="rgb(250,221,134)"/><path d=" M 271.588 142.508 L 238.906 134.585 L 239.564 131.872 L 272.245 139.796 L 271.588 142.508 Z " fill="rgb(250,221,134)"/><path d=" M 284.658 145.677 L 274.098 143.117 L 274.755 140.405 L 285.315 142.965 L 284.658 145.677 Z " fill="rgb(226,154,57)"/><path d=" M 311.773 146.106 L 290.788 141.018 L 291.445 138.301 L 312.43 143.389 L 311.773 146.106 Z " fill="rgb(141,193,201)"/><path d=" M 288.153 140.379 L 240.517 128.83 L 241.175 126.113 L 288.81 137.662 L 288.153 140.379 Z " fill="rgb(55,186,154)"/><path d=" M 263.87 96.171 L 251.285 93.12 L 251.943 90.403 L 264.528 93.454 L 263.87 96.171 Z " fill="rgb(250,221,134)"/><path d=" M 238.619 102.983 L 224.113 99.466 L 224.771 96.753 L 239.276 100.269 L 238.619 102.983 Z " fill="rgb(250,221,134)"/><path d=" M 264.535 109.249 L 240.981 103.559 L 241.639 100.846 L 265.193 106.53 L 264.535 109.249 Z " fill="rgb(55,186,154)"/><path d=" M 288.685 102.188 L 266.138 96.721 L 266.795 94.004 L 289.343 99.471 L 288.685 102.188 Z " fill="rgb(141,193,201)"/><path d=" M 250.578 99.493 L 225.576 93.431 L 226.234 90.717 L 251.238 96.779 L 250.578 99.493 Z " fill="rgb(141,193,201)"/><path d=" M 277.613 106.048 L 253.158 100.118 L 253.815 97.405 L 278.27 103.334 L 277.613 106.048 Z " fill="rgb(226,154,57)"/><path d=" M 297.133 110.78 L 280.038 106.635 L 280.698 103.922 L 297.79 108.067 L 297.133 110.78 Z " fill="rgb(55,186,154)"/><path d=" M 252.283 112.679 L 222.651 105.495 L 223.309 102.781 L 252.94 109.965 L 252.283 112.679 Z " fill="rgb(141,193,201)"/><path d=" M 270.363 117.063 L 254.553 113.229 L 255.21 110.516 L 271.02 114.349 L 270.363 117.063 Z " fill="rgb(250,221,134)"/><path d=" M 250.893 118.412 L 221.261 111.229 L 221.92 108.512 L 251.55 115.695 L 250.893 118.412 Z " fill="rgb(55,186,154)"/><path d=" M 280.64 125.625 L 253.163 118.963 L 253.82 116.246 L 281.298 122.908 L 280.64 125.625 Z " fill="rgb(141,193,201)"/><path d=" M 303.66 125.135 L 272.99 117.7 L 273.648 114.986 L 304.318 122.422 L 303.66 125.135 Z " fill="rgb(55,186,154)"/><path d=" M 248.595 86.079 L 241.509 84.361 L 242.167 81.648 L 249.253 83.366 L 248.595 86.079 Z " fill="rgb(55,186,154)"/><path d=" M 291.46 175.448 L 291.46 175.448 C 290.673 175.448 290.035 174.521 290.035 173.377 L 290.035 170.529 C 290.035 169.385 290.673 168.458 291.46 168.458 C 292.245 168.458 292.883 169.385 292.883 170.529 L 292.883 173.377 C 292.883 174.521 292.245 175.448 291.46 175.448 Z " fill="rgb(248,172,131)"/><path d=" M 212.342 156.302 L 212.342 156.302 C 211.641 155.946 211.491 154.831 212.008 153.811 L 213.294 151.27 C 213.811 150.25 214.799 149.71 215.5 150.066 C 216.202 150.421 216.352 151.536 215.835 152.557 L 214.548 155.097 C 214.031 156.118 213.044 156.657 212.342 156.302 Z " fill="rgb(248,172,131)"/></g></g></g></svg>