<?xml version="1.0" encoding="UTF-8" standalone="no"?><!-- Generator: Gravit.io --><svg xmlns="http://www.w3.org/2000/svg" xmlns:xlink="http://www.w3.org/1999/xlink" style="isolation:isolate" viewBox="2363.348 996.357 145.305 140.287" width="145.305pt" height="140.287pt"><defs><clipPath id="_clipPath_8232SmNXMKNTT7QTwSyrNDknTLR2c6CI"><rect x="2363.348" y="996.357" width="145.305" height="140.287"/></clipPath></defs><g clip-path="url(#_clipPath_8232SmNXMKNTT7QTwSyrNDknTLR2c6CI)"><g><path d=" M 2486.993 1091.09 L 2383.66 1091.09 L 2383.66 997.09 L 2486.993 997.09 L 2486.993 1091.09 Z " fill="rgb(108,196,238)"/><path d=" M 2421.988 1028.957 C 2421.305 1038.393 2411.393 1039.579 2406.449 1037.428 C 2403.522 1036.154 2401.696 1033.747 2400.734 1030.748 C 2398.545 1023.907 2399.665 1010.569 2411.19 1010.569 C 2417.454 1010.569 2421.426 1014.071 2422.026 1020.107 L 2416.46 1020.107 C 2415.956 1013.621 2408.952 1014.269 2406.988 1017.184 C 2405.1 1019.982 2405.068 1028.764 2406.876 1031.667 C 2408.792 1034.747 2415.941 1035.156 2416.423 1028.957 L 2421.988 1028.957 Z " fill="rgb(254,254,254)"/><path d=" M 2426.061 1021.201 C 2424.623 1018.55 2424.829 1013.055 2431.295 1011.116 C 2437.711 1009.197 2445.238 1012.053 2445.238 1018.92 L 2439.672 1018.92 C 2439.672 1013.478 2430.914 1014.033 2430.914 1018.139 C 2430.914 1021.982 2438.701 1021.451 2442.965 1025.469 C 2446.116 1028.436 2446.048 1033.752 2442.566 1036.35 C 2437.329 1040.264 2424.513 1038.686 2424.513 1029.459 L 2430.098 1029.459 C 2430.098 1031.801 2431.24 1033.197 2433.251 1033.688 C 2435.342 1034.202 2438.532 1034.063 2439.402 1032.084 C 2442.081 1026.071 2429.652 1027.837 2426.061 1021.201 Z " fill="rgb(254,254,254)"/><path d=" M 2462.809 1029.597 C 2461.645 1026.387 2452.464 1026.821 2449.423 1021.201 C 2448.522 1019.545 2448.401 1017.019 2449.44 1015.032 C 2452.993 1008.243 2468.599 1008.887 2468.599 1018.92 L 2463.032 1018.92 C 2463.032 1013.478 2454.274 1014.033 2454.274 1018.139 C 2454.274 1023.133 2468.599 1021.134 2468.599 1030.831 C 2468.599 1041.307 2447.873 1040.91 2447.873 1029.459 L 2453.458 1029.459 C 2453.458 1031.801 2454.6 1033.197 2456.612 1033.688 C 2458.703 1034.202 2461.892 1034.063 2462.763 1032.084 C 2463.116 1031.29 2463.066 1030.316 2462.809 1029.597 Z " fill="rgb(254,254,254)"/><path d=" M 2430.685 1112.455 C 2430.685 1116.36 2433.033 1119.568 2435.912 1119.568 C 2438.79 1119.568 2441.139 1116.36 2441.139 1112.455 L 2441.139 1106.281 L 2430.685 1106.281 L 2430.685 1112.455 Z " fill="rgb(108,196,238)"/><path d=" M 2402.665 1132.441 L 2469.335 1132.441 L 2469.335 1127.597 L 2402.665 1127.597 L 2402.665 1132.441 Z  M 2471.329 1136.43 L 2400.671 1136.43 C 2399.569 1136.43 2398.677 1135.537 2398.677 1134.436 L 2398.677 1125.604 C 2398.677 1124.502 2399.569 1123.609 2400.671 1123.609 L 2471.329 1123.609 C 2472.431 1123.609 2473.323 1124.502 2473.323 1125.604 L 2473.323 1134.436 C 2473.323 1135.537 2472.431 1136.43 2471.329 1136.43 Z " fill="rgb(57,66,95)"/><path d=" M 2435.912 1120.973 C 2431.939 1120.973 2428.707 1116.898 2428.707 1111.889 L 2428.707 1105.73 C 2428.707 1103.096 2432.695 1103.092 2432.695 1105.73 L 2432.695 1111.889 C 2432.695 1114.604 2434.198 1116.985 2435.912 1116.985 C 2437.626 1116.985 2439.129 1114.604 2439.129 1111.889 L 2439.129 1105.73 C 2439.129 1103.096 2443.117 1103.092 2443.117 1105.73 L 2443.117 1111.889 C 2443.117 1116.898 2439.885 1120.973 2435.912 1120.973 Z " fill="rgb(57,66,95)"/><path d=" M 2412.81 1126.997 C 2409.738 1124.943 2415.591 1122.695 2415.591 1113.217 L 2415.591 1105.73 C 2415.591 1103.096 2419.579 1103.092 2419.579 1105.73 C 2419.579 1113.606 2420.27 1119.432 2415.576 1126.447 C 2414.962 1127.367 2413.722 1127.606 2412.81 1126.997 Z " fill="rgb(57,66,95)"/><path d=" M 2456.247 1126.447 C 2451.611 1119.516 2452.245 1113.807 2452.245 1105.73 C 2452.245 1103.096 2456.233 1103.092 2456.233 1105.73 C 2456.233 1113.23 2455.571 1118.264 2459.561 1124.23 C 2461.027 1126.421 2457.711 1128.64 2456.247 1126.447 Z " fill="rgb(57,66,95)"/><path d=" M 2503.82 1107.025 L 2367.865 1107.025 C 2365.374 1107.025 2363.348 1105.083 2363.348 1102.695 L 2363.348 1010.212 C 2363.348 1007.824 2365.374 1005.881 2367.865 1005.881 L 2381.941 1005.881 C 2384.576 1005.881 2384.579 1009.87 2381.941 1009.87 L 2367.865 1009.87 C 2367.537 1009.87 2367.336 1010.068 2367.336 1010.212 C 2367.336 1109.041 2367.042 1103.037 2367.865 1103.037 C 2512.582 1103.037 2504.665 1103.389 2504.665 1102.402 C 2504.665 1003.857 2504.959 1009.87 2504.136 1009.87 L 2490.274 1009.87 C 2487.639 1009.87 2487.636 1005.881 2490.274 1005.881 L 2504.136 1005.881 C 2506.626 1005.881 2508.652 1007.824 2508.652 1010.212 L 2508.652 1102.402 C 2508.652 1104.951 2506.485 1107.025 2503.82 1107.025 Z " fill="rgb(57,66,95)"/><path d=" M 2497.826 1093.734 L 2374.173 1093.734 C 2373.096 1093.734 2372.222 1092.86 2372.222 1091.782 L 2372.222 1017.857 C 2372.222 1016.779 2373.096 1015.904 2374.173 1015.904 L 2382.208 1015.904 C 2384.787 1015.904 2384.79 1019.808 2382.208 1019.808 L 2376.126 1019.808 L 2376.126 1089.83 L 2495.874 1089.83 L 2495.874 1019.141 L 2490.274 1019.141 C 2487.695 1019.141 2487.691 1015.238 2490.274 1015.238 L 2497.826 1015.238 C 2498.904 1015.238 2499.777 1016.111 2499.777 1017.189 L 2499.777 1091.782 C 2499.777 1092.86 2498.904 1093.734 2497.826 1093.734 Z " fill="rgb(57,66,95)"/><path d=" M 2500.41 1136.643 C 2497.492 1136.643 2497.488 1132.227 2500.41 1132.227 C 2503.328 1132.227 2503.331 1136.643 2500.41 1136.643 Z " fill="rgb(57,66,95)"/><path d=" M 2497.826 1100.614 C 2494.909 1100.614 2494.906 1096.199 2497.826 1096.199 C 2500.743 1096.199 2500.747 1100.614 2497.826 1100.614 Z " fill="rgb(57,66,95)"/><path d=" M 2488.993 1100.614 C 2486.076 1100.614 2486.073 1096.199 2488.993 1096.199 C 2491.912 1096.199 2491.915 1100.614 2488.993 1100.614 Z " fill="rgb(57,66,95)"/><path d=" M 2480.162 1100.614 C 2477.243 1100.614 2477.241 1096.199 2480.162 1096.199 C 2483.079 1096.199 2483.083 1100.614 2480.162 1100.614 Z " fill="rgb(57,66,95)"/><path d=" M 2492.386 1136.43 L 2374.173 1136.43 C 2371.539 1136.43 2371.535 1132.441 2374.173 1132.441 L 2492.386 1132.441 C 2495.02 1132.441 2495.024 1136.43 2492.386 1136.43 Z " fill="rgb(57,66,95)"/><path d=" M 2485.941 1090.557 L 2485.941 1000.357 L 2386.274 1000.357 L 2386.274 1090.041 C 2386.274 1092.683 2382.274 1092.687 2382.274 1090.041 L 2382.274 998.357 C 2382.274 997.253 2383.17 996.357 2384.274 996.357 L 2487.941 996.357 C 2489.046 996.357 2489.941 997.253 2489.941 998.357 L 2489.941 1090.557 C 2489.941 1093.199 2485.941 1093.204 2485.941 1090.557 Z " fill="rgb(57,66,95)"/><path d=" M 2429.922 1083.467 C 2417.818 1080.057 2427.5 1067.231 2419.939 1067.231 L 2419.939 1063.39 C 2427.561 1063.39 2417.758 1050.583 2429.922 1047.156 L 2430.961 1050.143 C 2424.906 1052.382 2431.454 1061.873 2424.743 1065.303 C 2431.344 1068.708 2424.978 1078.382 2430.961 1080.462 L 2429.922 1083.467 Z " fill="rgb(254,254,254)"/><path d=" M 2441.685 1080.462 C 2447.82 1078.277 2441.053 1068.644 2447.975 1065.32 C 2441.165 1062.061 2447.742 1052.437 2441.685 1050.143 L 2442.725 1047.156 C 2454.885 1050.587 2445.087 1063.39 2452.707 1063.39 L 2452.707 1067.231 C 2445.097 1067.231 2454.871 1080.04 2442.725 1083.467 L 2441.685 1080.462 Z " fill="rgb(254,254,254)"/></g></g></svg>