<?xml version="1.0" encoding="UTF-8" standalone="no"?><!-- Generator: Gravit.io --><svg xmlns="http://www.w3.org/2000/svg" xmlns:xlink="http://www.w3.org/1999/xlink" style="isolation:isolate" viewBox="0 0 145.307 155.827" width="145.307pt" height="155.827pt"><defs><clipPath id="_clipPath_5DEMBdtZvircCUfDJJedCRafqh3LKTxN"><rect width="145.307" height="155.827"/></clipPath></defs><g clip-path="url(#_clipPath_5DEMBdtZvircCUfDJJedCRafqh3LKTxN)"><g><path d=" M 67.339 131.638 C 67.339 135.543 69.686 138.751 72.565 138.751 C 75.444 138.751 77.792 135.543 77.792 131.638 L 77.792 125.463 L 67.339 125.463 L 67.339 131.638 Z " fill="rgb(108,196,238)"/><path d=" M 39.318 151.625 L 105.988 151.625 L 105.988 146.78 L 39.318 146.78 L 39.318 151.625 Z  M 107.982 155.613 L 37.324 155.613 C 36.223 155.613 35.33 154.72 35.33 153.619 L 35.33 144.786 C 35.33 143.684 36.223 142.792 37.324 142.792 L 107.982 142.792 C 109.084 142.792 109.976 143.684 109.976 144.786 L 109.976 153.619 C 109.976 154.72 109.084 155.613 107.982 155.613 Z " fill="rgb(57,66,95)"/><path d=" M 72.565 140.156 C 68.593 140.156 65.36 136.08 65.36 131.07 L 65.36 124.914 C 65.36 122.279 69.349 122.275 69.349 124.914 L 69.349 131.07 C 69.349 133.786 70.851 136.168 72.565 136.168 C 74.279 136.168 75.782 133.786 75.782 131.07 L 75.782 124.914 C 75.782 122.279 79.77 122.275 79.77 124.914 L 79.77 131.07 C 79.77 136.08 76.538 140.156 72.565 140.156 Z " fill="rgb(57,66,95)"/><path d=" M 49.464 146.178 C 46.387 144.12 52.244 141.901 52.244 132.399 L 52.244 124.914 C 52.244 122.279 56.232 122.275 56.232 124.914 C 56.232 132.753 56.927 138.607 52.23 145.629 C 51.615 146.55 50.373 146.789 49.464 146.178 Z " fill="rgb(57,66,95)"/><path d=" M 92.9 145.629 C 88.265 138.699 88.898 132.991 88.898 124.914 C 88.898 122.279 92.887 122.275 92.887 124.914 C 92.887 132.416 92.226 137.447 96.215 143.413 C 97.681 145.603 94.364 147.823 92.9 145.629 Z " fill="rgb(57,66,95)"/><path d=" M 140.474 126.208 L 4.518 126.208 C 2.027 126.208 0 124.264 0 121.877 L 0 29.394 C 0 27.006 2.027 25.063 4.518 25.063 L 18.594 25.063 C 21.228 25.063 21.234 29.051 18.594 29.051 L 4.518 29.051 C 3.696 29.051 3.989 23.046 3.989 121.877 C 3.989 122.409 139.941 122.219 140.474 122.219 C 141.715 122.219 141.318 128.984 141.318 29.394 C 141.318 29.254 141.112 29.051 140.789 29.051 L 126.928 29.051 C 124.293 29.051 124.289 25.063 126.928 25.063 L 140.789 25.063 C 143.28 25.063 145.307 27.006 145.307 29.394 L 145.307 121.585 C 145.307 124.133 143.139 126.208 140.474 126.208 Z " fill="rgb(57,66,95)"/><path d=" M 134.479 112.917 L 10.827 112.917 C 9.749 112.917 8.875 112.043 8.875 110.964 L 8.875 37.039 C 8.875 35.961 9.749 35.087 10.827 35.087 L 18.861 35.087 C 21.439 35.087 21.444 38.991 18.861 38.991 L 12.779 38.991 L 12.779 109.012 L 132.527 109.012 L 132.527 38.324 L 126.928 38.324 C 124.349 38.324 124.346 34.42 126.928 34.42 L 134.479 34.42 C 135.557 34.42 136.432 35.294 136.432 36.372 L 136.432 110.964 C 136.432 112.043 135.557 112.917 134.479 112.917 Z " fill="rgb(57,66,95)"/><path d=" M 137.764 155.827 C 134.846 155.827 134.843 151.41 137.764 151.41 C 140.682 151.41 140.684 155.827 137.764 155.827 Z " fill="rgb(57,66,95)"/><path d=" M 134.479 119.797 C 131.562 119.797 131.558 115.38 134.479 115.38 C 137.397 115.38 137.4 119.797 134.479 119.797 Z " fill="rgb(57,66,95)"/><path d=" M 125.647 119.797 C 122.729 119.797 122.726 115.38 125.647 115.38 C 128.565 115.38 128.568 119.797 125.647 119.797 Z " fill="rgb(57,66,95)"/><path d=" M 116.815 119.797 C 113.897 119.797 113.894 115.38 116.815 115.38 C 119.733 115.38 119.736 119.797 116.815 119.797 Z " fill="rgb(57,66,95)"/><path d=" M 129.739 155.613 L 10.827 155.613 C 8.193 155.613 8.187 151.625 10.827 151.625 L 129.739 151.625 C 130.841 151.625 131.733 152.517 131.733 153.619 C 131.733 154.72 130.841 155.613 129.739 155.613 Z " fill="rgb(57,66,95)"/><path d=" M 122.595 109.739 L 122.595 19.539 L 22.928 19.539 L 22.928 109.223 C 22.928 111.866 18.928 111.87 18.928 109.223 L 18.928 17.539 C 18.928 16.434 19.823 15.539 20.928 15.539 L 124.595 15.539 C 125.699 15.539 126.595 16.434 126.595 17.539 L 126.595 109.739 C 126.595 112.381 122.595 112.385 122.595 109.739 Z " fill="rgb(57,66,95)"/><path d=" M 125.095 8.454 C 125.095 5.004 122.271 2.209 118.788 2.209 L 27.128 2.209 C 23.645 2.209 20.822 5.004 20.822 8.454 L 20.822 17.454 L 125.095 17.454 L 125.095 8.454 Z " fill="rgb(108,196,238)"/><path d=" M 23.009 15.2 L 122.907 15.2 L 122.907 8.529 C 122.907 6.025 120.87 3.988 118.366 3.988 L 27.55 3.988 C 25.046 3.988 23.009 6.025 23.009 8.529 L 23.009 15.2 Z  M 124.901 19.188 L 21.015 19.188 C 19.914 19.188 19.021 18.296 19.021 17.194 L 19.021 8.529 C 19.021 3.826 22.847 0 27.55 0 L 118.366 0 C 123.069 0 126.895 3.826 126.895 8.529 L 126.895 17.194 C 126.895 18.296 126.003 19.188 124.901 19.188 Z " fill="rgb(57,66,95)"/><path d=" M 30.368 9.832 C 30.368 12.656 34.684 12.656 34.684 9.832 C 34.684 7.006 30.368 7.006 30.368 9.832 Z " fill="rgb(57,66,95)"/><path d=" M 38.041 9.832 C 38.041 12.656 42.358 12.656 42.358 9.832 C 42.358 7.006 38.041 7.006 38.041 9.832 Z " fill="rgb(57,66,95)"/><path d=" M 45.716 9.832 C 45.716 12.656 50.032 12.656 50.032 9.832 C 50.032 7.006 45.716 7.006 45.716 9.832 Z " fill="rgb(57,66,95)"/><path d=" M 63.419 31.589 L 68.8 31.589 C 68.8 47.041 68.994 47.267 68.187 49.124 C 67.36 51.03 65.909 52.319 64.041 52.993 C 60.725 54.182 52.898 53.836 52.898 46.303 L 58.279 46.303 C 58.279 48.182 59.083 49.198 61.007 49.198 C 64.165 49.198 63.419 46.608 63.419 31.589 Z " fill="rgb(240,107,108)"/><path d=" M 72.937 40.208 C 71.546 37.137 72.847 33.154 77.428 31.756 C 81.918 30.389 89.655 31.799 89.655 38.046 L 84.293 38.046 C 84.293 34.357 77.557 34.493 77.557 37.471 C 77.557 40.44 84.031 39.602 87.614 42.62 C 90.001 44.633 89.986 48.031 89.006 49.903 C 86.095 55.462 71.713 54.935 71.713 46.322 L 77.094 46.322 C 77.094 48.851 78.842 49.569 81.361 49.569 C 83.177 49.569 84.046 48.857 84.34 48.149 C 86.234 43.563 75.336 45.522 72.937 40.208 Z " fill="rgb(240,107,108)"/><path d=" M 55.813 61.522 L 56.852 64.417 C 49.173 70.076 48.98 91.168 56.852 97.11 L 55.813 99.949 C 43.439 94.423 43.546 67 55.813 61.522 Z " fill="rgb(108,196,238)"/><path d=" M 68.468 98.186 C 56.355 94.77 66.05 81.951 58.485 81.951 L 58.485 78.11 C 66.095 78.11 56.313 65.302 68.468 61.875 L 69.507 64.862 C 63.453 67.105 70 76.593 63.291 80.021 C 69.988 83.478 63.482 93.083 69.507 95.18 L 68.468 98.186 Z " fill="rgb(108,196,238)"/><path d=" M 80.231 95.18 C 86.387 92.988 79.586 83.371 86.521 80.04 C 79.715 76.782 86.286 67.157 80.231 64.862 L 81.27 61.875 C 93.431 65.306 83.634 78.11 91.253 78.11 L 91.253 81.951 C 83.642 81.951 93.419 94.757 81.27 98.186 L 80.231 95.18 Z " fill="rgb(108,196,238)"/><path d=" M 93.925 99.949 L 92.886 97.11 C 100.564 91.348 100.688 70.429 92.886 64.361 L 93.925 61.522 C 98.31 63.416 103.443 70.504 103.443 80.522 C 103.443 91.096 98.311 98.054 93.925 99.949 Z " fill="rgb(108,196,238)"/></g></g></svg>